HIERARCHY
ROOT Pelvis
{
	OFFSET 0.000000 0.000000 0.000000
	CHANNELS 6 Xposition Yposition Zposition Zrotation Yrotation Xrotation 
	JOINT Left_hip
	{
		OFFSET 0.070241 -0.085575 -0.010474
		CHANNELS 3 Zrotation Yrotation Xrotation
		JOINT Left_knee
		{
			OFFSET 0.032125 -0.356873 -0.000555
			CHANNELS 3 Zrotation Yrotation Xrotation
			JOINT Left_ankle
			{
				OFFSET -0.010961 -0.370212 -0.042278
				CHANNELS 3 Zrotation Yrotation Xrotation
				JOINT Left_foot
				{
					OFFSET 0.023322 -0.052281 0.110104
					CHANNELS 3 Zrotation Yrotation Xrotation
					End Site
					{
						OFFSET 0.000000 0.000000 0.000000
					}
				}
			}
		}
	}
	JOINT Right_hip
	{
		OFFSET -0.068518 -0.084320 -0.007402
		CHANNELS 3 Zrotation Yrotation Xrotation
		JOINT Right_knee
		{
			OFFSET -0.037345 -0.364815 -0.003619
			CHANNELS 3 Zrotation Yrotation Xrotation
			JOINT Right_ankle
			{
				OFFSET 0.013394 -0.370006 -0.039954
				CHANNELS 3 Zrotation Yrotation Xrotation
				JOINT Right_foot
				{
					OFFSET -0.019600 -0.045455 0.113223
					CHANNELS 3 Zrotation Yrotation Xrotation
					End Site
					{
						OFFSET 0.000000 0.000000 0.000000
					}
				}
			}
		}
	}
	JOINT Spine1
	{
		OFFSET -0.002404 0.098129 -0.018169
		CHANNELS 3 Zrotation Yrotation Xrotation
		JOINT Spine2
		{
			OFFSET 0.003989 0.127209 -0.001742
			CHANNELS 3 Zrotation Yrotation Xrotation
			JOINT Spine3
			{
				OFFSET 0.001758 0.046641 0.023475
				CHANNELS 3 Zrotation Yrotation Xrotation
				JOINT Neck
				{
					OFFSET -0.003759 0.194901 -0.039982
					CHANNELS 3 Zrotation Yrotation Xrotation
					JOINT Head
					{
						OFFSET 0.003999 0.063756 0.047665
						CHANNELS 3 Zrotation Yrotation Xrotation
						End Site
						{
							OFFSET 0.000000 0.000000 0.000000
						}
					}
				}
				JOINT Left_collar
				{
					OFFSET 0.071816 0.109048 -0.028973
					CHANNELS 3 Zrotation Yrotation Xrotation
					JOINT Left_shoulder
					{
						OFFSET 0.084027 0.032269 -0.006525
						CHANNELS 3 Zrotation Yrotation Xrotation
						JOINT Left_elbow
						{
							OFFSET 0.243854 -0.013992 -0.025905
							CHANNELS 3 Zrotation Yrotation Xrotation
							JOINT Left_wrist
							{
								OFFSET 0.232156 0.008196 -0.000339
								CHANNELS 3 Zrotation Yrotation Xrotation
								JOINT Left_palm
								{
									OFFSET 0.075377 -0.009461 -0.012494
									CHANNELS 3 Zrotation Yrotation Xrotation
									End Site
									{
										OFFSET 0.000000 0.000000 0.000000
									}
								}
							}
						}
					}
				}
				JOINT Right_collar
				{
					OFFSET -0.073768 0.107001 -0.033755
					CHANNELS 3 Zrotation Yrotation Xrotation
					JOINT Right_shoulder
					{
						OFFSET -0.086837 0.032868 -0.009431
						CHANNELS 3 Zrotation Yrotation Xrotation
						JOINT Right_elbow
						{
							OFFSET -0.236446 -0.012544 -0.018747
							CHANNELS 3 Zrotation Yrotation Xrotation
							JOINT Right_wrist
							{
								OFFSET -0.236110 0.006124 -0.004327
								CHANNELS 3 Zrotation Yrotation Xrotation
								JOINT Right_palm
								{
									OFFSET -0.074800 -0.006875 -0.009610
									CHANNELS 3 Zrotation Yrotation Xrotation
									End Site
									{
										OFFSET 0.000000 0.000000 0.000000
									}
								}
							}
						}
					}
				}
			}
		}
	}
}
MOTION
Frames: 5
Frame Time: 0.100000
0.263938 0.565932 0.262651 154.788653 56.088949 36.224656 13.654402 1.648728 -119.857166 6.087871 29.638791 157.953069 1.845021 8.982010 -29.356367 8.531658 3.085395 -13.401442 -15.610046 -7.869614 -10.146752 2.685504 14.936644 44.219993 15.173226 -12.421641 -20.619977 -35.170830 2.784872 -19.196746 4.972872 13.100066 59.640877 -5.015361 -12.089197 -13.887942 4.406782 2.387948 5.911836 -14.416317 -7.659495 -7.318562 16.967298 3.236336 -46.712995 21.139626 -18.873542 -14.861554 16.547128 -13.515172 -36.651941 114.695416 -47.632470 -76.558049 69.022094 -21.111308 -7.469166 0.731844 -1.446002 10.271115 -26.848791 17.141396 -14.532253 -6.693575 10.396101 -42.345244 -122.686256 56.953584 -86.723209 -72.282045 23.567597 -5.168796 6.121381 4.976105 4.425907 
0.263991 0.565903 0.262898 154.830522 56.153050 36.249192 13.657330 1.586052 -119.868664 6.065434 29.637959 157.938316 1.813642 9.031335 -29.349318 8.608456 3.096427 -13.340301 -15.527697 -7.884344 -10.079301 2.600539 14.766049 44.187929 15.045550 -12.593913 -20.769995 -34.993939 2.795404 -19.085740 4.968911 13.110389 59.680496 -4.978814 -12.079661 -13.870552 4.426403 2.370851 5.936466 -14.375383 -7.622500 -7.202174 16.929235 3.223983 -46.694611 21.198861 -18.770982 -14.837462 16.583962 -13.604461 -36.686961 114.520048 -47.707289 -76.368925 69.174900 -21.102139 -7.472497 0.778464 -1.401420 10.350235 -26.871245 17.046932 -14.543254 -6.725148 10.451306 -42.290381 -122.763141 56.987756 -86.772174 -72.461165 23.509777 -5.215628 6.110175 4.947956 4.501575 
0.263957 0.565959 0.263005 154.844456 56.177530 36.282505 13.646597 1.562623 -119.910422 6.038677 29.635408 157.938639 1.717669 9.060155 -29.295792 8.752405 3.073972 -13.316318 -15.475185 -7.962260 -10.084579 2.534031 14.519644 44.196895 14.983162 -12.774271 -20.907621 -34.944248 2.827802 -18.990864 4.979868 13.117564 59.664457 -4.957911 -12.070622 -13.848242 4.445001 2.365442 5.943763 -14.415053 -7.600869 -6.996772 16.911086 3.267301 -46.619926 21.136991 -18.716052 -14.767650 16.631783 -13.605919 -36.634801 114.479168 -47.910541 -76.333483 69.139907 -21.158667 -7.477927 0.672155 -1.407129 10.255778 -26.849189 17.008146 -14.573488 -6.776987 10.386409 -42.282485 -122.787317 56.936190 -87.007553 -72.425762 23.446657 -5.542015 6.190623 4.937906 4.517137 
0.263712 0.565930 0.262854 154.760622 56.271519 36.139915 13.559248 1.412992 -119.792137 5.991181 29.626721 157.869346 1.507159 9.231219 -29.305168 9.179134 2.960771 -13.328535 -15.318124 -7.932896 -9.994765 2.454946 14.393316 44.183387 14.926603 -13.031061 -20.961830 -34.948250 2.914846 -18.943050 5.123185 13.029036 59.728641 -4.878497 -12.031488 -13.825816 4.513320 2.387776 6.037233 -14.401673 -7.679193 -6.665521 16.838059 3.368151 -46.466455 20.976285 -18.647783 -14.670181 16.614699 -13.630397 -36.741628 114.254222 -47.874141 -76.086686 69.580697 -21.356679 -7.453527 0.505180 -1.461024 10.277490 -26.848978 17.021765 -14.645864 -7.119481 10.309597 -42.449637 -122.638208 56.953090 -87.058757 -72.473192 23.647569 -5.713019 6.216689 4.941877 4.612303 
0.263062 0.565579 0.262172 154.543258 56.163673 35.788036 13.475092 1.344291 -119.557819 6.002947 29.678045 157.770418 1.605630 9.491892 -29.289328 9.152054 2.951143 -13.251606 -15.235552 -7.983183 -9.961524 2.350179 14.309931 44.227164 14.671873 -13.433439 -20.919346 -34.502434 3.012393 -18.809742 5.109253 13.005151 59.916769 -4.750881 -11.970739 -13.937493 4.535743 2.433421 6.270621 -14.045245 -7.793689 -6.663748 16.660572 3.491337 -46.028055 21.063452 -18.282532 -14.573808 16.346799 -13.805854 -36.821949 113.358607 -47.748618 -75.721682 69.542232 -20.134863 -7.528681 0.685814 -1.402702 10.718616 -26.790126 16.842723 -14.661122 -7.740179 10.966981 -42.806888 -121.446569 57.326743 -85.711464 -72.822581 23.213089 -4.311236 6.119339 4.959720 4.537733 
